<?xml version="1.0" encoding="utf-8"?>
<!-- Generator: Adobe Illustrator 27.0.0, SVG Export Plug-In . SVG Version: 6.00 Build 0)  -->
<svg version="1.1" id="Vrstva_1" xmlns="http://www.w3.org/2000/svg" xmlns:xlink="http://www.w3.org/1999/xlink" x="0px" y="0px"
	 viewBox="0 0 899.083 549.232" style="enable-background:new 0 0 899.083 549.232;" xml:space="preserve">
<style type="text/css">
	.st0{fill:#FFF000;}
	.st1{fill:#FFFFFF;}
</style>
<rect x="508.351" y="1.225" class="st0" width="311.986" height="257.645"/>
<rect x="530.77" y="297.259" class="st1" width="267.148" height="31.639"/>
<g>
	<path d="M605.265,128.27c-0.85,0.282-1.7,0.564-2.561,0.85c1.573,0.637,1.562,1.49,0.763,3.153
		c-1.579,3.288-2.594,6.843-3.954,10.242c-1.702,4.251-3.884,8.349-5.169,12.717c-1.075,3.653-3.212,5.98-6.349,7.627
		c-0.759,0.399-1.815,0.234-2.789-0.11c-0.404,0.259-0.812,0.75-1.213,0.744c-5.411-0.081-9.455-5.875-6.988-10.2
		c2.667-4.676,4.364-9.901,6.568-14.849c0.995-2.234,2.249-4.351,3.283-6.569c0.943-2.024,1.725-4.122,2.622-6.168
		c0.793-1.811,1.647-3.596,2.444-5.326c-1.016-0.699-2.218-1.897-2.547-1.693c-2.653,1.651-5.585,0.683-8.323,0.986
		c-5.917,0.654-11.329,2.645-16.25,5.667c-3.833,2.353-7.702,5.15-10.457,8.621c-3.176,4.001-5.897,8.567-7.255,13.7
		c-0.771,2.916-1.541,3.753-4.346,3.623c-3.317-0.154-6.641-0.642-9.908-1.27c-2.7-0.519-3.554-2.266-2.563-5.225
		c0.838-2.501,1.875-4.979,3.164-7.275c2.064-3.674,4.169-7.373,6.711-10.716c2.084-2.74,4.771-5.04,7.3-7.418
		c1.97-1.852,4.046-3.607,6.192-5.252c1.634-1.253,3.462-2.155,5.442-2.912c3.082-1.179,5.836-3.234,8.932-4.356
		c4.415-1.599,9.011-2.529,13.788-2.681c5.277-0.167,10.449,0.138,15.373,1.644c1.117-2.711,2.189-5.321,3.267-7.928
		c1.098-2.653,2.173-5.316,3.311-7.952c1.728-4.003,3.543-7.97,5.245-11.984c1.576-3.717,2.943-7.526,4.611-11.2
		c1.296-2.854,2.902-5.568,4.392-8.331c0.93-1.723,1.634-3.664,2.911-5.084c2.421-2.69,5.262-4.734,8.924-5.873
		c4.411-1.372,8.756-0.632,13.132-0.688c3.353-0.042,6.721-0.06,10.056,0.219c1.415,0.119,2.889,0.829,4.116,1.614
		c2.61,1.67,3.521,4.388,3.567,7.315c0.011,0.674-1.032,1.433-1.698,2.034c-1.131,1.023-2.348,1.951-3.664,3.03
		c-4.189-0.404-8.815-0.692-13.936,0.046c-2.106-1.379-6.697,0.111-8.539,2.615c-2.368,3.22-3.138,7.04-5.209,10.786
		c2.638,0,4.873,0.022,7.108-0.005c3.712-0.045,7.423-0.12,11.135-0.186c2.942-0.053,5.886-0.187,8.827-0.147
		c3.357,0.045,6.723,0.129,10.061,0.445c0.993,0.094,1.907,1.028,3.174,1.761c-0.649,0.502-1.144,0.885-1.306,1.01
		c0.131,1.833,0.279,3.353,0.338,4.877c0.053,1.368,0.008,2.739,0.007,4.109c-0.001,1.428-1.87,3.05-3.157,2.63
		c-3.396-1.109-6.808-0.021-10.205-0.189c-0.84-0.042-1.655-0.466-2.498-0.622c-0.543-0.1-1.118-0.048-1.677-0.035
		c-2.677,0.059-5.357,0.085-8.031,0.211c-1.362,0.064-2.713,0.433-4.072,0.447c-1.392,0.014-2.797-0.177-4.179-0.387
		c-1.585-0.24-3.15-0.608-4.73-0.888c-0.136-0.024-0.315,0.193-0.419,0.261c1.535,2.268,2.916,4.59,4.575,6.692
		c2.177,2.758,4.674,5.264,6.847,8.026c2.044,2.597,3.787,5.43,5.773,8.075c1.727,2.3,3.669,4.441,5.37,6.759
		c0.32,0.436,0.225,1.72-0.153,2.027c-1.437,1.166-3.069,2.092-4.704,3.157c-0.135-0.195,0.053,0.077-0.071-0.103
		c-1.668,1.764-3.172,3.355-4.872,5.154c-0.663-0.591-1.589-1.551-2.652-2.322c-0.905-0.657-1.044-2.465-2.787-1.923
		c-0.069,0.021-0.34-0.279-0.348-0.437c-0.154-3.068-2.841-3.97-4.705-5.597c-0.743-0.648-1.721-1.456-1.847-2.302
		c-0.372-2.497-2.2-3.652-3.86-5.077c-0.633-0.544-0.901-1.492-1.426-2.187c-1.425-1.887-2.905-3.732-4.348-5.606
		c-0.382-0.496-0.705-1.037-1.357-2.007c-1.47,3.036-2.793,5.767-4.158,8.585c0.274,0.066,0.639,0.154,1.51,0.364
		c-0.953,0.569-1.587,0.947-2.561,1.529c0.258,0.3,0.579,0.925,1.092,1.227c2.187,1.285,4.46,2.425,6.634,3.731
		c0.6,0.36,0.97,1.106,1.438,1.681c2.677,3.295,5.57,6.443,7.958,9.936c1.85,2.707,3.386,5.735,4.478,8.826
		c1.129,3.197,1.659,6.623,2.256,9.984c0.495,2.786,0.769,5.616,1.019,8.437c0.144,1.63-0.992,2.591-2.645,2.459
		c-3.609-0.288-7.219-0.558-10.824-0.884c-1.126-0.102-2.239-0.33-1.743-1.974c0.077-0.254-0.198-0.609-0.295-0.922
		c-1.035-3.342-2.108-6.672-3.067-10.035c-0.216-0.759-0.032-1.632-0.032-2.096c-0.894-1.359-1.839-2.505-2.464-3.805
		c-1.416-2.944-2.508-6.072-5.529-7.894c-0.385-0.232-0.885-0.711-0.883-1.074c0.006-1.651-1.143-1.732-2.303-1.948
		c-1.433-0.267-1.005,0.943-1.351,1.56c-0.11,0.195-0.446,0.262-0.679,0.388c-0.3-0.824-0.6-1.648-0.9-2.472
		c-0.153-0.432-0.645-0.844-1.18-1.192c-0.929-0.604-1.962-1.735-2.811-1.62c-1.386,0.189-1.953-0.857-2.352-1.371
		c-1.534-1.979-2.469-2.229-4.385-0.685c1.382,1.331,2.782,2.68,4.189,4.035c-0.067-0.403-0.154-0.927-0.297-1.789
		c0.968,1.243,1.519,2.489,2.474,3.057C601.661,127.049,603.517,127.569,605.265,128.27z"/>
	<path d="M724.854,101.483c1.976,0.72,2.616,2.734,3.249,4.802c0.074,0.242,1.007,0.537,1.19,0.385
		c2.777-2.319,6.283-2.09,9.518-2.755c0.428-0.088,0.982,0.431,1.311,0.589c0.485-0.391,0.939-1.062,1.351-1.038
		c2.477,0.146,4.989,0.242,7.407,0.747c5.038,1.053,10.021,2.367,15.035,3.54c2.237,0.523,4.266,1.353,6.158,2.748
		c1.973,1.454,4.308,2.41,6.339,3.796c1.995,1.361,3.851,2.938,5.691,4.511c4.347,3.715,7.888,8.152,10.894,12.969
		c1.635,2.619,2.96,5.475,4.087,8.356c1.297,3.316,2.243,6.771,3.289,10.181c0.287,0.937,0.489,1.925,0.547,2.901
		c0.121,2.057-1.377,2.941-3.261,2.167c-0.992-0.408-2.131-0.59-3.211-0.626c-2.736-0.092-5.48,0.013-8.215-0.103
		c-0.493-0.021-1.227-0.633-1.388-1.123c-0.745-2.266-1.132-4.665-2.02-6.865c-0.963-2.387-2.261-4.653-3.554-6.89
		c-1.672-2.891-3.474-5.706-5.25-8.535c-0.182-0.29-0.541-0.575-0.868-0.653c-2.288-0.545-3.401-2.141-4.27-3.914
		c-0.479-0.397-0.955-0.799-1.439-1.19c-0.772-0.624-1.776-1.099-2.275-1.893c-0.868-1.381-1.6-0.666-2.539-0.252
		c-0.287,0.127-0.84-0.293-1.248-0.507c-1.123-0.588-2.18-1.353-3.361-1.768c-1.893-0.666-3.856-1.143-5.809-1.618
		c-0.485-0.118-1.047,0.078-2.056,0.178c-1.791-1.178-4.18-0.891-6.681-0.163c-1.331,0.387-2.779,0.379-4.177,0.532
		c-0.893,0.098-1.789,0.164-2.996,0.272c0.261,0.9,0.354,1.709,0.712,2.375c2.613,4.866,5.272,9.706,7.93,14.548
		c2.146,3.908,4.368,7.774,6.44,11.72c0.992,1.889,2.194,3.869,2.408,5.902c0.18,1.714-0.649,3.718-1.531,5.318
		c-1.478,2.68-4.485,2.55-7.033,2.912c-1.781,0.253-3.651-0.176-5.482-0.186c-1.106-0.006-2.212,0.282-3.321,0.305
		c-2.342,0.049-4.721-0.455-6.985,0.56c-0.058,0.026-0.151,0.067-0.184,0.042c-2.658-1.985-5.414,0.596-8.095-0.178
		c-1.24-0.358-2.479-0.723-3.831-0.8c0.195,0.123,0.39,0.245,0.586,0.368c-0.016,0.114-0.032,0.229-0.047,0.343
		c-2.463-0.233-4.926-0.466-7.712-0.73c-0.739,1.699,0.192,3.852,1.012,5.769c1.457,3.406,3.206,6.711,5.1,9.9
		c3.797,6.394,9.607,10.592,16.222,13.58c2.957,1.335,6.309,1.835,9.516,2.566c2.722,0.621,3.819,1.379,3.837,3.199
		c0.035,3.632,0.024,7.265,0.026,10.897c0.002,3.691-0.655,4.21-4.093,3.32c-4.004-1.036-8.059-1.904-12.008-3.116
		c-2.568-0.788-5.254-1.524-6.943-4.056c-0.408-0.611-1.711-0.588-2.561-0.955c-0.646-0.279-2.069,0.034-1.358-1.518
		c0.056-0.123-0.083-0.435-0.221-0.533c-1.965-1.398-3.984-2.723-5.901-4.183c-0.708-0.539-1.177-1.389-1.771-2.084
		c-0.258-0.302-0.503-0.692-0.841-0.834c-5.154-2.171-7.734-6.716-10.298-11.227c-1.285-2.26-2.752-4.57-3.325-7.045
		c-0.875-3.784-3.699-7.14-2.577-11.426c0.178-0.678-0.742-1.63-1.116-2.472c-0.177-0.399-0.373-0.837-0.376-1.259
		c-0.032-3.513-0.54-7.123,0.099-10.516c0.953-5.064,1.431-10.326,4.246-14.937c1.033-1.693,1.462-3.754,2.358-6.164
		c5.004,3.06,9.724,5.946,14.887,9.103c-1.029,1.328-1.663,2.147-2.444,3.155c-0.199,0.97-0.419,2.33-0.767,3.656
		c-0.306,1.164-0.165,1.361,1.16,1.211c2.025-0.228,4.103,0.032,6.158,0.05c2.44,0.022,4.881-0.006,7.321,0.011
		c1.989,0.014,3.978,0.084,5.968,0.078c0.537-0.002,1.073-0.191,1.651-0.302c-3.412-6.61-6.717-13.015-10.173-19.711
		c-1.832,2.258-3.25,4.192-4.88,5.927c-0.725,0.771-1.534,2.05-3.051,1.078c-3.574-2.288-7.196-4.502-10.739-6.836
		c-0.422-0.278-0.7-1.131-0.663-1.691c0.207-3.1,1.963-5.26,4.414-6.999c1.7-1.205,3.388-2.445,4.954-3.815
		c1.296-1.135,1.087-3.601-0.122-5.108c-0.342-0.427-0.338-1.131-0.531-1.85C716.391,105.629,720.43,103.65,724.854,101.483z"/>
	<path d="M668.995,140.181c2.19-3.984,4.358-8.11,6.725-12.118c0.671-1.135,0.757-3.005,2.749-3.103
		c0.045-0.002-0.164-1.302,0.084-1.842c0.547-1.19,1.39-2.241,1.972-3.418c2.582-5.219,6.278-9.79,8.181-15.451
		c1.427-4.244,4.012-8.094,6.001-12.159c0.579-1.183,0.881-2.502,1.333-3.824c-3.516,0.133-6.693,0.303-9.872,0.335
		c-0.753,0.008-1.502-0.613-2.267-0.648c-0.906-0.042-1.83,0.22-2.74,0.38c-1.377,0.242-2.745,0.694-4.124,0.723
		c-1.988,0.041-3.983-0.218-6.085-0.356c0-4.435,0-8.958,0-13.592c6.454-1.636,12.805-1.686,19.179-1.486
		c3.704,0.116,7.414,0.297,11.11,0.155c0.422-0.016,2.96,0.062,2.087-2.193c-0.184-0.476,0.144-1.15,0.226-1.668
		c-1.193-0.04-2.394-0.021-3.582-0.137c-1.298-0.126-2.584-0.378-4.136-0.614c-0.445,0.765-3.007,1.714-4.863,1.213
		c-0.957-0.258-2.331-0.123-2.42-1.715c-0.008-0.134-0.279-0.283-0.454-0.373c-1.102-0.565-2.92-0.89-3.181-1.713
		c-0.701-2.212-0.909-4.63-0.978-6.976c-0.045-1.517,3.59-4.298,5.099-4.297c1.151,0.001,2.312-0.199,3.451-0.103
		c1.628,0.137,3.241,0.462,4.705,0.684c0.146-0.193,0.36-0.705,0.553-0.697c5.094,0.207,10.186,0.681,15.277,0.663
		c6.032-0.021,12.065-0.416,18.094-0.729c3.714-0.193,6.502,0.884,8.292,4.473c1.028,2.06,2.14,4.156,0.934,6.101
		c-0.61,0.984-0.392,3.635-2.976,2.934c-0.129-0.035-0.469,0.708-0.813,1.249c-1.013,0.078-2.5,0.307-3.98,0.273
		c-1.24-0.028-2.634-0.15-2.307-2.516c-0.626,1.386-1,2.215-1.451,3.213c-2.366-1.825-4.811-1.483-7.102-0.882
		c-0.735,0.193-1.299,1.635-1.636,2.611c-0.642,1.863-0.844,3.939-3.062,4.775c-0.117,0.044-0.208,0.178-0.292,0.284
		c-0.45,0.567-0.43,5.039-0.058,5.756c2.153,4.159,4.23,8.357,6.44,12.485c0.706,1.32,0.099,1.743-0.928,2.252
		c-3.481,1.723-6.937,3.497-10.585,5.344c-1.148-1.751-2.277-3.475-3.474-5.301c-1.831,3.507-3.688,7.064-5.589,10.705
		c0.029,0.018,0.315,0.194,0.339,0.208c-0.742,1.217-1.474,2.284-2.069,3.423c-1.538,2.938-3.088,5.874-4.48,8.881
		c-0.55,1.188-0.591,2.604-1.064,3.84c-0.271,0.71-1.071,1.206-1.411,1.905c-1.993,4.096-3.914,8.226-5.879,12.335
		c-0.242,0.505-0.601,0.954-0.974,1.536c0.162,0.093,0.46,0.264,0.743,0.426c-0.286,0.825-0.573,1.651-0.909,2.62
		c-0.296,0.017-0.745,0.042-1.107,0.063c-0.311,0.903-0.611,1.774-0.949,2.756c3.685,0.951,2.27,3.964,2.306,6.356
		c0.03,1.972-0.187,3.954-0.402,5.92c-0.115,1.055-0.292,2.166-0.754,3.096c-0.283,0.569-1.175,1.214-1.769,1.19
		c-3.963-0.158-7.92-0.48-11.878-0.764c-1.445-0.104-2.887-0.252-4.331-0.38c0.133-0.183,0.266-0.366,0.4-0.549
		c-0.675-1.019-1.336-2.048-2.027-3.055c-0.803-1.17-1.633-2.323-2.438-3.465c-0.01,0.016-0.301,0.476-0.736,1.166
		c-1.337-1.49-2.504-2.552-3.344-3.829c-0.4-0.608,0.016-1.709-0.298-2.43c-0.291-0.668-1.015-1.201-1.661-1.622
		c-0.143-0.094-0.756,0.53-1.181,0.845c-0.456-0.605-1.013-1.344-1.821-2.416c0.645,0.244,0.952,0.361,1.462,0.554
		c-0.103-0.455-0.18-1.091-0.257-1.091c-2.61,0.001-3.426-2.267-4.76-3.8c-2.021-2.323-3.97-4.718-5.809-7.187
		c-0.727-0.976-1.077-2.233-1.567-3.295c0.17-0.215,0.037-0.047-0.095,0.121c-0.139-0.023-0.278-0.046-0.416-0.068
		c0.223-0.709,0.222-1.724,0.706-2.078c2.941-2.153,5.305-5.09,9.017-6.223c2.433-0.743,2.825-0.778,4.353,1.243
		c1.493,1.975,3.135,3.838,4.722,5.742c2.134,2.559,4.313,5.083,6.386,7.69C668.955,139.012,668.911,139.814,668.995,140.181z"/>
	<path d="M545.445,156.081c-0.188,7.094,0.961,13.866,3.721,20.15c0.507,0.64,1.018,1.243,1.484,1.879
		c0.971,1.326,1.886,2.693,2.883,3.999c1.539,2.016,3.127,3.995,4.596,5.864c0.275,0,0.791-0.155,1.128,0.025
		c2.555,1.36,4.98,3.006,7.625,4.146c5.765,2.484,11.71,4.168,18.122,2.898c2.881-0.571,5.796-0.976,8.7-1.428
		c0.504-0.078,1.03-0.011,1.324-0.011c0.789-0.537,1.488-1.268,2.337-1.552c6.281-2.096,10.887-6.307,14.772-11.463
		c0.824-1.094,1.762-2.128,2.419-3.315c1.206-2.178,2.15-4.503,3.376-6.669c1.116-1.971,1.476-4.102,1.778-6.268
		c0.311-2.228,1.029-2.867,4.02-2.926c4.192-0.083,8.386-0.021,12.74-0.021c0.319,3.703-0.527,6.997-1.7,10.266
		c-0.521,1.454-0.647,3.054-1.209,4.487c-0.4,1.02-1.32,1.824-1.84,2.812c-0.5,0.95-0.663,2.082-1.193,3.009
		c-0.611,1.067-1.521,1.959-2.196,2.995c-1.08,1.656-1.862,3.555-3.15,5.017c-2.552,2.895-5.175,5.785-8.115,8.267
		c-3.585,3.027-7.467,5.718-11.347,8.371c-1.313,0.898-3.01,1.23-4.528,1.831c-1.127,0.446-2.399,0.703-3.343,1.4
		c-2.793,2.062-6.19,1.915-9.295,2.814c-1.046,0.303-2.084,0.633-2.649,0.806c-1.71-0.598-3.147-1.284-4.66-1.584
		c-1.975-0.392-4.009-0.493-6.021-0.682c-0.368-0.035-0.871-0.019-1.113,0.196c-2.313,2.061-4.991,1.439-7.483,0.795
		c-2.897-0.748-5.831-1.661-8.465-3.042c-3.873-2.03-7.452-4.611-11.234-6.825c-3.936-2.303-7.061-5.487-9.506-9.202
		c-2.201-3.343-4.091-6.956-5.626-10.655c-2.507-6.041-3.676-12.45-4.01-18.981c-0.094-1.829,0.085-3.686,0.293-5.513
		c0.215-1.895,2.459-3.35,4.28-2.962c0.527,0.112,1.086,0.068,1.629,0.113C537.762,155.436,541.537,155.753,545.445,156.081z"/>
	<path d="M762.719,209.589c-0.929,0.593-1.75,1.501-2.688,1.643c-2.49,0.377-5.03,0.493-7.553,0.534
		c-0.422,0.007-1.203-0.865-1.233-1.366c-0.233-3.909-0.357-7.825-0.447-11.741c-0.061-2.656,0.969-3.231,3.592-3.729
		c3.33-0.632,6.641-1.658,9.769-2.97c2.54-1.066,5.018-2.546,7.116-4.323c1.864-1.579,4.049-2.952,5.17-5.363
		c0.964-2.073,2.17-4.037,3.354-5.998c0.147-0.243,0.823-0.167,1.285-0.244c-0.229-0.508-0.698-1.056-0.572-1.349
		c0.798-1.852,1.937-3.579,2.551-5.48c0.552-1.708,0.575-3.587,0.87-5.657c0.181,0.537,0.289,0.858,0.507,1.503
		c0.081-0.895,0.298-1.539,0.165-2.101c-0.81-3.422-0.599-3.928,2.538-3.948c4.187-0.027,8.375,0.18,12.562,0.294
		c0.196,0.005,0.391,0.081,0.896,0.191c0.649,5.029-0.759,9.868-1.469,15.13c-0.72-0.8-1.117-1.242-1.514-1.683
		c0.456,1.541-1.736,3.687,0.916,4.316c-0.509,1.047-0.955,1.883-1.33,2.751c-1.467,3.397-2.773,6.751-4.882,9.969
		c-2.585,3.945-5.655,7.235-9.095,10.166c-3.144,2.679-6.817,4.793-10.436,6.838c-2.123,1.2-4.55,1.998-6.94,2.519
		c-0.782,0.171-1.67,0.015-2.471,0.506C763.245,210.08,762.784,209.631,762.719,209.589z"/>
</g>
<path class="st1" d="M410.291,148.447c11.238,0,18.901,3.065,24.521,9.961c4.342,5.364,6.641,12.772,7.152,19.924h-63.858
	c0.511-6.131,2.299-13.027,6.386-18.647C389.601,152.533,398.285,148.447,410.291,148.447 M458.311,146.914
	c-10.728-13.538-27.842-21.201-48.02-21.201c-19.413,0-34.739,6.131-45.978,17.88c-11.494,12.261-17.113,29.119-17.113,48.787
	c0,20.69,5.364,37.548,17.113,49.554c10.984,11.238,26.31,17.624,46.233,17.624c32.695,0,53.64-14.559,60.281-43.934l-29.374-2.299
	c-2.81,15.582-12.516,23.5-31.162,23.5c-21.201,0-31.929-12.005-32.44-35.76h95.02C473.637,179.098,468.528,159.685,458.311,146.914
	 M344.132,256.493l-51.597-80.205l50.064-47.51h-39.08l-45.467,46.489V77.693h-30.396v178.8h30.396v-47.51l14.049-13.282
	l37.292,60.792H344.132z M197.005,128.778h-30.396v127.714h30.396V128.778z M197.005,76.16h-30.396v32.695h30.396V76.16z M32,230.95
	v-52.874h36.271c19.413,0,42.657,0.511,42.657,27.331c0,24.777-19.158,25.543-43.934,25.543H32z M63.418,103.491
	c21.2,0,40.613,0.766,40.613,24.521c0,24.011-19.413,24.521-40.869,24.521H32v-49.042H63.418z M111.183,164.794
	c14.559-7.152,24.01-20.179,24.01-38.57c0-43.423-36.781-48.531-69.987-48.531H0.071v178.8h67.945
	c37.548,0,74.074-4.853,74.074-49.553C142.09,184.973,130.851,171.946,111.183,164.794"/>
<path class="st1" d="M881.714,547.444c5.62,0,12.005-0.511,16.859-1.532l-0.511-26.31c-4.343,0.767-8.685,1.278-11.75,1.278
	c-9.195,0-13.282-1.788-13.282-9.451v-68.711h26.053v-24.265H873.03v-35.505h-29.886v35.505h-18.39v24.265h18.39v71.265
	C843.144,537.993,857.449,547.444,881.714,547.444 M757.834,549.232c28.097,0,54.917-9.451,54.917-40.358
	c0-30.14-27.331-35.504-51.341-40.868c-16.348-3.576-28.097-6.641-28.097-16.603c0-9.962,10.472-14.304,21.711-14.304
	c16.092,0,25.798,7.663,26.565,23.499l27.841-4.597c-2.809-30.396-26.564-40.614-54.406-40.614c-25.543,0-50.32,10.984-50.32,38.315
	c0,25.798,21.712,32.95,44.445,38.825c19.157,4.853,34.994,6.897,34.994,18.135c0,10.728-8.94,16.859-26.054,16.859
	c-16.858,0-28.352-8.685-28.608-25.288l-28.353,3.321C702.15,536.205,727.949,549.232,757.834,549.232 M623.48,438.121
	c11.239,0,18.902,3.065,24.521,9.961c4.343,5.364,6.642,12.772,7.152,19.924h-63.857c0.511-6.131,2.299-13.027,6.386-18.647
	C602.79,442.207,611.475,438.121,623.48,438.121 M671.501,436.588c-10.728-13.538-27.842-21.201-48.021-21.201
	c-19.412,0-34.738,6.131-45.977,17.88c-11.494,12.261-17.114,29.119-17.114,48.787c0,20.69,5.364,37.548,17.114,49.554
	c10.983,11.238,26.309,17.624,46.233,17.624c32.695,0,53.64-14.559,60.281-43.934L654.643,503
	c-2.81,15.581-12.517,23.499-31.163,23.499c-21.2,0-31.928-12.005-32.439-35.76h95.019
	C686.827,468.772,681.718,449.359,671.501,436.588 M460.772,546.167v-77.14h80.205v-26.309h-80.205v-48.787h89.656v-26.564H429.099
	v178.8H460.772z"/>
<path class="st1" d="M238.273,22.933c3.643,0,6.126,0.993,7.948,3.229c1.407,1.739,2.152,4.139,2.318,6.458h-20.698
	c0.166-1.987,0.745-4.223,2.07-6.044C231.567,24.258,234.382,22.933,238.273,22.933 M253.838,22.436
	c-3.478-4.388-9.025-6.871-15.565-6.871c-6.292,0-11.26,1.987-14.903,5.795c-3.725,3.974-5.547,9.438-5.547,15.813
	c0,6.706,1.739,12.171,5.547,16.062c3.56,3.643,8.528,5.712,14.986,5.712c10.597,0,17.386-4.719,19.539-14.24l-9.522-0.745
	c-0.91,5.05-4.056,7.617-10.1,7.617c-6.872,0-10.349-3.891-10.515-11.591h30.799C258.805,32.868,257.149,26.576,253.838,22.436
	 M200.437,39.409c0,9.852-5.05,11.839-8.941,11.839c-2.401,0-4.554-0.166-6.541-2.153c-1.987-2.07-2.069-4.967-2.069-8.776V16.558
	h-10.018v24.258c0,5.05,0.331,10.183,3.56,13.578c2.98,3.146,6.623,4.553,11.922,4.553c5.712,0,9.935-2.483,12.17-7.037v6.044h9.604
	V16.558h-9.687V39.409z M150.515,47.522c-1.656,1.822-3.974,2.815-7.12,2.815c-7.7,0-10.184-4.636-10.184-14.157
	c0-4.719,0.745-8.197,2.732-10.432c1.656-1.904,4.14-2.898,7.617-2.898c6.872,0,10.184,4.802,10.184,13.33
	C153.744,40.899,152.75,44.956,150.515,47.522 M153.412,22.022c-2.649-4.057-6.706-6.457-12.501-6.457
	c-10.763,0-18.38,8.361-18.38,20.615c0,12.915,7.451,21.443,18.628,21.443c5.63,0,9.687-2.318,12.253-6.789v6.458
	c0,6.789-3.394,10.431-9.769,10.431c-5.63,0-9.107-1.821-9.438-7.368l-9.521,0.662c0.496,10.184,9.024,13.909,18.545,13.909
	c12.253,0,19.953-6.375,19.953-17.717V16.558h-9.77V22.022z M105.808,42.058c0,6.127-3.808,9.687-10.846,9.687
	c-3.56,0-6.375-1.739-6.375-5.299c0-3.809,2.65-5.05,6.458-5.961l10.763-2.318V42.058z M115.329,29.225
	c0-9.024-6.044-13.66-16.724-13.66c-5.795,0-10.349,1.076-13.412,3.228c-3.146,2.153-4.968,5.63-5.216,10.515l9.604,1.242
	c0.083-5.796,2.732-7.783,8.445-7.783c3.394,0,5.464,0.746,6.623,2.319c1.159,1.655,1.159,3.642,1.159,6.375l-12.336,2.318
	c-7.534,1.407-14.902,3.891-14.902,12.75c0,8.362,6.706,12.418,14.323,12.418c6.788,0,11.259-2.814,13.412-6.871
	c0,2.566,0.248,4.305,0.579,5.878h9.853v-0.331c-0.828-1.987-1.408-4.388-1.408-7.12V29.225z M73.105,15.647
	c-6.706,0.497-10.846,4.057-12.171,8.362v-7.451h-9.769v41.396h9.852V38.995c0-11.426,4.885-14.572,12.667-14.572
	c0.746,0,1.491,0,2.07,0.083l0.249-8.941C75.34,15.565,73.767,15.565,73.105,15.647 M10.349,8.362H20.45
	c6.706,0,13.495,0.165,13.495,9.603c0,9.108-6.789,9.522-13.578,9.522H10.349V8.362z M10.349,57.954V35.766h10.183
	c10.846,0,23.762-1.739,23.762-17.801C44.294,1.738,31.295,0,20.615,0H0v57.954H10.349z"/>
</svg>
