<?xml version="1.0" encoding="utf-8"?>
<!-- Generator: Adobe Illustrator 26.0.1, SVG Export Plug-In . SVG Version: 6.00 Build 0)  -->
<svg version="1.1" id="Vrstva_1" xmlns="http://www.w3.org/2000/svg" xmlns:xlink="http://www.w3.org/1999/xlink" x="0px" y="0px"
	 viewBox="0 0 257 55" style="enable-background:new 0 0 257 55;" xml:space="preserve">
<style type="text/css">
	.st0{fill:#FFFFFF;}
	.st1{fill-rule:evenodd;clip-rule:evenodd;fill:#D92420;}
</style>
<g>
	<g>
		<path class="st0" d="M76.44,9.77c1.07-0.18,2.4-0.29,3.82-0.29c2.46,0,4.13,0.51,5.34,1.52c1.29,1.03,2.07,2.61,2.07,4.84
			c0,2.36-0.8,4.09-2.05,5.23c-1.31,1.19-3.39,1.79-5.95,1.79c-1.38,0-2.44-0.08-3.24-0.18V9.77z M78.84,20.91
			c0.33,0.06,0.84,0.06,1.33,0.06c3.12,0.02,4.97-1.72,4.97-5.05c0.02-2.89-1.66-4.56-4.66-4.56c-0.76,0-1.29,0.06-1.64,0.14V20.91z
			"/>
		<path class="st0" d="M93.82,22.94c-2.67,0-4.76-1.83-4.76-4.89c0-3.12,2.05-5.03,4.91-5.03c2.83,0,4.72,1.99,4.72,4.88
			c0,3.49-2.46,5.05-4.86,5.05H93.82z M93.9,21.2c1.36,0,2.32-1.33,2.32-3.26c0-1.48-0.66-3.2-2.3-3.2c-1.7,0-2.38,1.66-2.38,3.24
			c0,1.83,0.92,3.22,2.34,3.22H93.9z"/>
		<path class="st0" d="M100.66,16.38c0-1.25-0.04-2.26-0.08-3.16h2.11l0.12,1.46h0.04c0.7-1.07,1.81-1.68,3.26-1.68
			c2.18,0,4,1.87,4,4.84c0,3.43-2.16,5.09-4.33,5.09c-1.19,0-2.18-0.51-2.67-1.27h-0.04v4.91h-2.4V16.38z M103.06,18.74
			c0,0.23,0.02,0.45,0.06,0.66c0.25,0.98,1.09,1.68,2.12,1.68c1.52,0,2.42-1.27,2.42-3.14c0-1.68-0.82-3.04-2.36-3.04
			c-0.99,0-1.91,0.72-2.16,1.77c-0.04,0.19-0.08,0.41-0.08,0.6V18.74z"/>
		<path class="st0" d="M112.07,16.29c0-1.29-0.02-2.22-0.08-3.06h2.07l0.1,1.79h0.06c0.47-1.33,1.58-2.01,2.61-2.01
			c0.23,0,0.37,0.02,0.57,0.06v2.24c-0.21-0.04-0.43-0.06-0.72-0.06c-1.13,0-1.93,0.72-2.14,1.81c-0.04,0.21-0.06,0.47-0.06,0.72
			v4.93h-2.4V16.29z"/>
		<path class="st0" d="M126.21,20.44c0,0.86,0.04,1.7,0.16,2.28h-2.16l-0.18-1.05h-0.06c-0.57,0.74-1.56,1.27-2.81,1.27
			c-1.91,0-2.98-1.38-2.98-2.83c0-2.38,2.12-3.61,5.63-3.59v-0.16c0-0.62-0.25-1.66-1.93-1.66c-0.94,0-1.91,0.29-2.55,0.7
			l-0.47-1.56c0.7-0.43,1.93-0.84,3.43-0.84c3.04,0,3.92,1.93,3.92,4.02V20.44z M123.87,18.08c-1.7-0.02-3.31,0.33-3.31,1.77
			c0,0.94,0.6,1.37,1.37,1.37c0.97,0,1.66-0.62,1.89-1.31c0.06-0.17,0.06-0.35,0.06-0.53V18.08z"/>
		<path class="st0" d="M130.07,13.23l1.54,4.82c0.27,0.84,0.47,1.6,0.64,2.38h0.06c0.18-0.78,0.39-1.52,0.64-2.38l1.52-4.82h2.52
			l-3.63,9.5H131l-3.53-9.5H130.07z"/>
		<path class="st0" d="M138.45,16.05c0-1.09-0.04-2.01-0.08-2.83h2.09l0.12,1.42h0.06c0.43-0.74,1.46-1.64,3.04-1.64
			c1.66,0,3.37,1.07,3.37,4.08v5.64h-2.4v-5.36c0-1.37-0.51-2.4-1.81-2.4c-0.96,0-1.62,0.68-1.87,1.4c-0.08,0.2-0.12,0.49-0.12,0.76
			v5.6h-2.4V16.05z"/>
		<path class="st0" d="M149.61,22.72v-9.5h2.4v9.5H149.61z M153.72,9.11L151.34,12h-1.66l1.7-2.89H153.72z"/>
		<path class="st0" d="M158.63,16.38c0-1.25-0.04-2.26-0.08-3.16h2.11l0.12,1.46h0.04c0.7-1.07,1.81-1.68,3.26-1.68
			c2.18,0,4,1.87,4,4.84c0,3.43-2.17,5.09-4.33,5.09c-1.19,0-2.18-0.51-2.67-1.27h-0.04v4.91h-2.4V16.38z M161.03,18.74
			c0,0.23,0.02,0.45,0.06,0.66c0.25,0.98,1.09,1.68,2.12,1.68c1.52,0,2.42-1.27,2.42-3.14c0-1.68-0.82-3.04-2.36-3.04
			c-0.99,0-1.91,0.72-2.16,1.77c-0.04,0.19-0.08,0.41-0.08,0.6V18.74z"/>
		<path class="st0" d="M174.2,22.94c-2.67,0-4.76-1.83-4.76-4.89c0-3.12,2.05-5.03,4.91-5.03c2.83,0,4.72,1.99,4.72,4.88
			c0,3.49-2.46,5.05-4.86,5.05H174.2z M174.27,21.2c1.37,0,2.32-1.33,2.32-3.26c0-1.48-0.66-3.2-2.3-3.2c-1.7,0-2.38,1.66-2.38,3.24
			c0,1.83,0.92,3.22,2.34,3.22H174.27z"/>
		<path class="st0" d="M189.79,8.86v11.19c0,0.98,0.04,2.03,0.08,2.67h-2.12l-0.12-1.5h-0.04c-0.57,1.05-1.72,1.72-3.08,1.72
			c-2.28,0-4.08-1.93-4.08-4.86c-0.02-3.18,1.97-5.07,4.25-5.07c1.31,0,2.24,0.53,2.67,1.23h0.04V8.86H189.79z M187.4,17.18
			c0-0.2-0.02-0.45-0.06-0.64c-0.21-0.92-0.97-1.68-2.07-1.68c-1.54,0-2.4,1.36-2.4,3.12c0,1.75,0.86,3.02,2.38,3.02
			c0.97,0,1.83-0.66,2.07-1.7c0.06-0.21,0.08-0.45,0.08-0.7V17.18z"/>
		<path class="st0" d="M192.37,16.05c0-1.09-0.04-2.01-0.08-2.83h2.09l0.12,1.42h0.06c0.43-0.74,1.46-1.64,3.04-1.64
			c1.66,0,3.37,1.07,3.37,4.08v5.64h-2.4v-5.36c0-1.37-0.51-2.4-1.81-2.4c-0.96,0-1.62,0.68-1.87,1.4c-0.08,0.2-0.12,0.49-0.12,0.76
			v5.6h-2.4V16.05z"/>
		<path class="st0" d="M204.71,11.86c-0.8,0-1.33-0.58-1.33-1.29c0-0.74,0.55-1.31,1.35-1.31c0.82,0,1.33,0.57,1.35,1.31
			c0,0.7-0.53,1.29-1.35,1.29H204.71z M203.52,22.72v-9.5h2.4v9.5H203.52z"/>
		<path class="st0" d="M210.91,17.4h0.04c0.23-0.37,0.51-0.78,0.74-1.11l2.32-3.06h2.89l-3.53,3.88l4.02,5.62h-2.94l-2.73-4.19
			l-0.8,0.96v3.24h-2.4V8.86h2.4V17.4z"/>
		<path class="st0" d="M76.35,28.86h2.4v5.65h0.04c0.29-0.45,0.7-0.82,1.19-1.07c0.49-0.27,1.05-0.43,1.66-0.43
			c1.62,0,3.31,1.07,3.31,4.12v5.6h-2.4v-5.34c0-1.37-0.51-2.42-1.83-2.42c-0.94,0-1.6,0.62-1.87,1.34c-0.08,0.21-0.1,0.47-0.1,0.72
			v5.69h-2.4V28.86z"/>
		<path class="st0" d="M87.5,28.86h2.4v13.86h-2.4V28.86z"/>
		<path class="st0" d="M99.88,40.44c0,0.86,0.04,1.7,0.16,2.28h-2.16l-0.18-1.05h-0.06c-0.57,0.74-1.56,1.27-2.81,1.27
			c-1.91,0-2.98-1.38-2.98-2.83c0-2.38,2.12-3.61,5.63-3.59v-0.16c0-0.62-0.25-1.66-1.93-1.66c-0.94,0-1.91,0.29-2.55,0.7
			l-0.47-1.56c0.7-0.43,1.93-0.84,3.43-0.84c3.04,0,3.92,1.93,3.92,4.02V40.44z M97.54,38.08c-1.7-0.02-3.31,0.33-3.31,1.77
			c0,0.94,0.6,1.37,1.37,1.37c0.97,0,1.66-0.62,1.89-1.31c0.06-0.17,0.06-0.35,0.06-0.53V38.08z"/>
		<path class="st0" d="M103.74,33.23l1.54,4.82c0.27,0.84,0.47,1.6,0.64,2.38h0.06c0.18-0.78,0.39-1.52,0.64-2.38l1.52-4.82h2.52
			l-3.63,9.5h-2.36l-3.53-9.5H103.74z"/>
		<path class="st0" d="M112.13,36.05c0-1.09-0.04-2.01-0.08-2.83h2.09l0.12,1.42h0.06c0.43-0.74,1.46-1.64,3.04-1.64
			c1.66,0,3.37,1.07,3.37,4.08v5.63h-2.4v-5.36c0-1.37-0.51-2.4-1.81-2.4c-0.95,0-1.62,0.68-1.87,1.4
			c-0.08,0.19-0.12,0.49-0.12,0.76v5.6h-2.4V36.05z"/>
		<path class="st0" d="M123.28,42.72v-9.5h2.4v9.5H123.28z M127.4,29.11L125.02,32h-1.66l1.7-2.89H127.4z"/>
		<path class="st0" d="M128.27,28.86h2.4v5.65h0.04c0.29-0.45,0.7-0.82,1.19-1.07c0.49-0.27,1.05-0.43,1.66-0.43
			c1.62,0,3.32,1.07,3.32,4.12v5.6h-2.4v-5.34c0-1.37-0.51-2.42-1.83-2.42c-0.94,0-1.6,0.62-1.87,1.34c-0.08,0.21-0.1,0.47-0.1,0.72
			v5.69h-2.4V28.86z"/>
		<path class="st0" d="M143.58,42.94c-2.67,0-4.76-1.83-4.76-4.89c0-3.12,2.05-5.03,4.91-5.03c2.83,0,4.72,1.99,4.72,4.88
			c0,3.49-2.46,5.05-4.86,5.05H143.58z M143.66,41.2c1.37,0,2.32-1.33,2.32-3.26c0-1.48-0.66-3.2-2.3-3.2
			c-1.7,0-2.38,1.66-2.38,3.24c0,1.83,0.92,3.22,2.34,3.22H143.66z"/>
		<path class="st0" d="M154.46,36.05c0-1.09-0.04-2.01-0.08-2.83h2.05l0.12,1.4h0.06c0.45-0.74,1.31-1.62,2.93-1.62
			c1.25,0,2.22,0.7,2.63,1.76h0.04c0.33-0.53,0.72-0.92,1.15-1.19c0.55-0.37,1.15-0.57,1.95-0.57c1.56,0,3.16,1.07,3.16,4.12v5.6
			h-2.34v-5.25c0-1.58-0.55-2.51-1.7-2.51c-0.82,0-1.42,0.58-1.68,1.27c-0.08,0.21-0.12,0.53-0.12,0.8v5.69h-2.34v-5.5
			c0-1.33-0.53-2.26-1.64-2.26c-0.9,0-1.5,0.7-1.74,1.34c-0.08,0.25-0.12,0.53-0.12,0.8v5.62h-2.34V36.05z"/>
		<path class="st0" d="M172.69,38.65c0.06,1.72,1.4,2.46,2.92,2.46c1.11,0,1.89-0.17,2.63-0.43l0.35,1.64
			c-0.82,0.35-1.95,0.6-3.31,0.6c-3.08,0-4.89-1.89-4.89-4.8c0-2.63,1.6-5.11,4.64-5.11c3.08,0,4.09,2.54,4.09,4.62
			c0,0.45-0.04,0.8-0.08,1.01H172.69z M173.98,32l-1.91-2.89h1.66l1.05,1.77h0.04l1.07-1.77h1.64L175.64,32H173.98z M176.87,36.97
			c0.02-0.88-0.37-2.32-1.97-2.32c-1.48,0-2.11,1.35-2.2,2.32H176.87z"/>
		<path class="st0" d="M180.96,40.5c0.53,0.33,1.56,0.7,2.42,0.7c1.05,0,1.52-0.45,1.52-1.07c0-0.64-0.39-0.96-1.56-1.38
			c-1.85-0.62-2.61-1.64-2.61-2.77c0-1.68,1.38-2.96,3.59-2.96c1.05,0,1.97,0.25,2.54,0.57l-0.49,1.68
			c-0.39-0.23-1.17-0.55-2.01-0.55c-0.86,0-1.33,0.43-1.33,1.01c0,0.6,0.45,0.88,1.66,1.33c1.74,0.6,2.52,1.48,2.54,2.89
			c0,1.74-1.35,2.98-3.86,2.98c-1.15,0-2.18-0.27-2.89-0.66L180.96,40.5z"/>
		<path class="st0" d="M191.94,30.79v2.44h2.28v1.79h-2.28v4.17c0,1.17,0.31,1.76,1.23,1.76c0.43,0,0.66-0.02,0.94-0.1l0.04,1.81
			c-0.35,0.14-1,0.25-1.74,0.25c-0.9,0-1.62-0.29-2.07-0.78c-0.53-0.55-0.76-1.42-0.76-2.67v-4.45h-1.35v-1.79h1.35v-1.77
			L191.94,30.79z"/>
		<path class="st0" d="M203.41,40.44c0,0.86,0.04,1.7,0.16,2.28h-2.16l-0.18-1.05h-0.06c-0.57,0.74-1.56,1.27-2.81,1.27
			c-1.91,0-2.98-1.38-2.98-2.83c0-2.38,2.12-3.61,5.64-3.59v-0.16c0-0.62-0.25-1.66-1.93-1.66c-0.94,0-1.91,0.29-2.55,0.7
			l-0.47-1.56c0.7-0.43,1.93-0.84,3.43-0.84c3.04,0,3.92,1.93,3.92,4.02V40.44z M201.07,38.08c-1.7-0.02-3.32,0.33-3.32,1.77
			c0,0.94,0.6,1.37,1.37,1.37c0.97,0,1.66-0.62,1.89-1.31c0.06-0.17,0.06-0.35,0.06-0.53V38.08z"/>
		<path class="st0" d="M210.07,29.75c0.88-0.16,2.07-0.27,3.67-0.27c1.75,0,3.02,0.37,3.86,1.07c0.78,0.64,1.29,1.68,1.29,2.91
			c0,1.25-0.39,2.26-1.11,2.96c-0.97,0.96-2.46,1.42-4.15,1.42c-0.45,0-0.84-0.02-1.17-0.1v4.97h-2.38V29.75z M212.45,35.86
			c0.31,0.1,0.68,0.12,1.17,0.12c1.79,0,2.89-0.9,2.89-2.42c0-1.44-1.01-2.22-2.67-2.22c-0.66,0-1.13,0.06-1.38,0.12V35.86z"/>
		<path class="st0" d="M220.64,36.29c0-1.29-0.02-2.22-0.08-3.06h2.07l0.1,1.79h0.06c0.47-1.33,1.58-2.01,2.61-2.01
			c0.23,0,0.37,0.02,0.57,0.06v2.24c-0.21-0.04-0.43-0.06-0.72-0.06c-1.13,0-1.93,0.72-2.14,1.81c-0.04,0.21-0.06,0.47-0.06,0.72
			v4.93h-2.4V36.29z"/>
		<path class="st0" d="M234.78,40.44c0,0.86,0.04,1.7,0.16,2.28h-2.16l-0.18-1.05h-0.06c-0.57,0.74-1.56,1.27-2.81,1.27
			c-1.91,0-2.98-1.38-2.98-2.83c0-2.38,2.12-3.61,5.64-3.59v-0.16c0-0.62-0.25-1.66-1.93-1.66c-0.94,0-1.91,0.29-2.55,0.7
			l-0.47-1.56c0.7-0.43,1.93-0.84,3.43-0.84c3.04,0,3.92,1.93,3.92,4.02V40.44z M232.44,38.08c-1.7-0.02-3.32,0.33-3.32,1.77
			c0,0.94,0.6,1.37,1.37,1.37c0.97,0,1.66-0.62,1.89-1.31c0.06-0.17,0.06-0.35,0.06-0.53V38.08z"/>
		<path class="st0" d="M237.32,28.86h2.4v5.65h0.04c0.29-0.45,0.7-0.82,1.19-1.07c0.49-0.27,1.05-0.43,1.66-0.43
			c1.62,0,3.32,1.07,3.32,4.12v5.6h-2.4v-5.34c0-1.37-0.51-2.42-1.83-2.42c-0.94,0-1.6,0.62-1.87,1.34c-0.08,0.21-0.1,0.47-0.1,0.72
			v5.69h-2.4V28.86z"/>
		<path class="st0" d="M249.68,33.23l1.7,5.09c0.19,0.58,0.41,1.31,0.55,1.83h0.06c0.14-0.53,0.31-1.25,0.51-1.85l1.48-5.07h2.55
			l-2.38,6.47c-1.31,3.55-2.18,5.13-3.3,6.1c-0.96,0.82-1.93,1.13-2.51,1.21L247.79,45c0.41-0.1,0.9-0.31,1.38-0.66
			c0.45-0.29,1-0.86,1.33-1.5c0.08-0.18,0.14-0.31,0.14-0.43c0-0.1-0.02-0.23-0.12-0.47l-3.49-8.72H249.68z"/>
	</g>
	<path class="st1" d="M36.97,30.35c-3.53,1.86-6.59,4.46-9.02,7.59l3.34-13.14c3.49-1.81,6.55-4.35,8.98-7.4L36.97,30.35
		L36.97,30.35z M61.27,27.08h-6.98c-0.16-7.15-4.05-13.42-9.8-16.88c0.88-2.2,1.47-4.53,1.77-6.96
		C55.02,7.64,61.1,16.67,61.27,27.08L61.27,27.08z M67.86,28.88c-0.14,3.01-0.64,5.91-1.51,8.67h-7
		c-3.99,9.99-13.8,17.09-25.19,17.09c-3.64,0-7.11-0.72-10.28-2.02c0.34-3.48,1.36-6.77,2.93-9.71H26.8
		c4.38-8.3,13.12-14.03,23.1-14.03H67.86L67.86,28.88z M44.57,2.46c-1.23,12.99-12.53,23.71-26.09,23.71h-18
		c0.11-3.01,0.64-5.91,1.51-8.67h6.96C12.94,7.48,22.75,0.36,34.16,0.36C37.84,0.36,41.37,1.11,44.57,2.46L44.57,2.46z M7.03,27.97
		h6.98c0.16,7.19,4.12,13.47,9.95,16.91c-0.87,2.2-1.47,4.54-1.76,6.98C13.34,47.49,7.2,38.42,7.03,27.97L7.03,27.97z M16.68,17.49
		h1.85c6.98-0.02,13.03-4.2,15.79-10.15c-0.05,0-0.09,0-0.16,0C26.7,7.34,20.17,11.45,16.68,17.49L16.68,17.49z M49.9,37.57
		c-6.94,0-12.98,4.15-15.77,10.09h0.02c7.44,0,13.96-4.08,17.46-10.11L49.9,37.57L49.9,37.57z"/>
</g>
</svg>
