<svg width="1327" height="712" viewBox="0 0 1327 712" fill="none" xmlns="http://www.w3.org/2000/svg">
<rect x="628.935" y="434.202" width="654" height="266" transform="rotate(-7.15973 628.935 434.202)" stroke="#6ADCFF" stroke-width="16"/>
<path d="M717.274 608.552L703.314 497.425L746.336 492.021C770.149 489.03 787.126 503.507 789.479 522.24C792.271 544.465 779.62 561.857 755.49 564.888L732.947 567.72L737.753 605.979L717.274 608.552ZM730.614 549.146L752.521 546.394C763.952 544.958 770.297 536.421 769.001 526.102C767.744 516.101 759.306 509.259 748.034 510.675L726.127 513.427L730.614 549.146ZM817.077 596.015L806.707 513.464L826.71 510.951L828.485 525.08L855.84 505.357L858.492 526.471L831.017 545.242L837.08 593.502L817.077 596.015ZM905.25 586.552C889.057 588.586 875.537 579.802 873.603 564.403C871.708 549.322 880.929 538.004 899.364 534.56L921.886 530.28L921.786 529.486C921.048 523.612 913.88 516.611 902.45 518.047C890.702 519.522 886.559 527.622 885.451 532.921L868.559 526.819C872.005 514.453 881.642 502.6 900.693 500.207C925.775 497.056 939.915 513.34 941.85 528.739L948.231 579.54L928.387 582.033L927.29 573.301C924.099 579.991 916.045 585.196 905.25 586.552ZM893.664 561.077C894.362 566.633 899.405 569.548 905.914 568.73C916.55 567.394 925.833 559.133 924.557 548.972L924.238 546.432L902.668 550.593C896.695 551.827 892.966 555.521 893.664 561.077ZM1008.48 591.161C1024.04 589.207 1030.88 578.188 1029.47 566.917L1028.47 558.979C1024.46 565.61 1015.68 571.39 1003.93 572.866C982.179 575.598 961.75 561.877 958.48 535.842C955.189 509.648 971.749 491.281 993.34 488.569C1004.77 487.133 1014.93 491.016 1020.67 496.907L1019.4 486.747L1039.24 484.254L1049.05 562.36C1051.82 584.427 1039.91 606.403 1010.86 610.053C990.696 612.585 975.111 602.771 968.217 590.253L983.769 579.269C988.379 587.72 997.689 592.517 1008.48 591.161ZM978.641 533.309C980.316 546.645 990.979 555.787 1004.63 554.072C1018.6 552.317 1026.35 540.862 1024.68 527.526C1022.98 514.032 1012.66 505.009 998.689 506.764C985.036 508.479 976.946 519.815 978.641 533.309ZM1101.65 561.72C1083.07 564.053 1069.25 551.599 1067.12 534.612L1060.46 481.589L1080.3 479.096L1086.32 527.04C1087.64 537.517 1095.78 543.267 1104.99 542.111C1114.99 540.855 1120.74 532.714 1119.5 522.872L1113.48 474.928L1133.32 472.436L1141.64 538.636L1149.41 554.269L1127.5 557.021L1123.41 548.827C1120.35 554.049 1113.39 560.245 1101.65 561.72ZM1203.35 548.944C1176.52 552.315 1157.96 535.457 1154.96 511.644C1151.93 487.514 1166.9 466.766 1192.46 463.556C1218.66 460.265 1236.11 478.552 1238.84 500.301L1239.84 508.239L1175.86 516.276C1179.96 528.339 1189.87 532.739 1201.14 531.323C1213.84 529.728 1220.54 521.468 1222.06 515.632L1238.24 522.469C1236.07 530.806 1226.05 546.093 1203.35 548.944ZM1174.35 500.34L1217.21 494.956C1215.82 487.713 1207.79 479.046 1194.46 480.721C1184.46 481.977 1175.97 488.849 1174.35 500.34Z" fill="#6ADCFF"/>
<g clip-path="url(#clip0_241_80)">
<path d="M601.234 657.379L7.00015 611.526L38.9282 197.756L633.162 243.609L601.234 657.379ZM25.5873 595.546L585.318 638.737L614.575 259.589L54.8438 216.398L25.5873 595.546Z" fill="#F03553"/>
<path d="M111.413 282.66L139.54 284.831L161.295 367.144L195.232 289.128L223.172 291.284L214.765 400.23L195.451 398.74L201.288 323.098L169.199 396.714L148.572 395.122L128.345 317.47L122.508 393.111L103.194 391.621L111.601 282.675L111.413 282.66Z" fill="#F03553"/>
<path d="M234.581 378.098C235.728 363.233 246.797 354.244 264.885 354.504L287.114 354.895L287.172 354.142C287.622 348.309 282.202 340.319 270.951 339.451C259.7 338.583 253.884 345.516 251.818 350.278L236.865 341.175C242.626 330.073 254.113 320.549 272.676 321.981C297.241 323.877 307.516 342.273 306.355 357.326L302.507 407.189L283.193 405.699L283.861 397.043C279.459 402.76 270.889 406.263 260.2 405.439C244.449 404.223 233.232 393.136 234.394 378.083L234.581 378.098ZM264.522 388.547C274.835 389.343 285.296 383.336 286.066 373.364L286.254 370.917L264.964 370.6C259.122 370.527 254.749 373.408 254.328 378.864C253.907 384.321 258.146 388.055 264.522 388.547Z" fill="#F03553"/>
<path d="M331.284 293.379L350.598 294.869L345.966 354.893L356.655 355.718L377.208 331.372L400.085 333.137L371.637 366.906L394.591 414.105L372.277 412.383L353.847 374.997L344.471 374.274L341.712 410.025L322.398 408.535L331.284 293.379Z" fill="#F03553"/>
<path d="M399.776 373.81C401.605 350.101 419.89 333.152 445.017 335.091C470.144 337.03 483.62 357.944 481.965 379.395L481.37 387.11L418.74 382.277C420.234 394.695 428.814 400.847 439.877 401.7C452.253 402.655 460.305 396.084 462.977 390.801L477.122 400.599C473.339 408.068 460.856 420.733 438.729 419.026C412.477 417 398.163 397.157 399.963 373.824L399.776 373.81ZM462.309 370.117C462.486 362.938 456.461 353.009 443.335 351.996C433.584 351.244 424.148 356.194 420.306 366.876L462.309 370.117Z" fill="#F03553"/>
<path d="M500.03 340.85L519.532 342.355L518.457 356.279L548.367 342.687L546.769 363.385L516.933 376.036L513.274 423.453L493.772 421.949L500.016 341.039L500.03 340.85Z" fill="#F03553"/>
<path d="M100.073 429.615L172.267 435.186L170.858 453.438L118.729 449.415L116.508 478.204L163.386 481.821L161.978 500.073L115.099 496.456L111.716 540.298L91.6523 538.75L100.059 429.803L100.073 429.615Z" fill="#F03553"/>
<path d="M173.551 521.219C174.698 506.354 185.766 497.365 203.854 497.626L226.083 498.016L226.141 497.263C226.591 491.43 221.171 483.441 209.92 482.572C198.669 481.704 192.853 488.637 190.788 493.399L175.834 484.296C181.595 473.194 193.082 463.67 211.646 465.102C236.21 466.998 246.486 485.394 245.324 500.447L241.477 550.31L222.163 548.82L222.83 540.164C218.428 545.882 209.858 549.384 199.17 548.56C183.418 547.344 172.201 536.258 173.363 521.204L173.551 521.219ZM203.491 531.668C213.804 532.464 224.265 526.457 225.035 516.485L225.224 514.039L203.933 513.721C198.091 513.648 193.719 516.529 193.298 521.986C192.877 527.442 197.116 531.176 203.491 531.668Z" fill="#F03553"/>
<path d="M279.342 433.606C286.655 434.17 291.874 439.873 291.293 447.399C290.713 454.926 284.695 459.572 277.382 459.008C270.069 458.443 264.85 452.741 265.416 445.402C265.983 438.064 271.842 433.027 279.342 433.606ZM266.861 470.689L286.175 472.179L279.931 553.089L260.617 551.599L266.861 470.689Z" fill="#F03553"/>
<path d="M306.239 473.727L325.74 475.232L324.666 489.156L354.575 475.564L352.978 496.262L323.141 508.913L319.483 556.33L299.981 554.825L306.224 473.915L306.239 473.727Z" fill="#F03553"/>
<path d="M357.309 518.363C359.138 494.654 377.423 477.705 402.55 479.643C427.677 481.582 441.153 502.497 439.498 523.948L438.903 531.662L376.273 526.829C377.767 539.248 386.347 545.399 397.41 546.253C409.786 547.208 417.838 540.637 420.51 535.354L434.655 545.152C430.872 552.621 418.388 565.286 396.262 563.579C370.01 561.553 355.696 541.709 357.496 518.377L357.309 518.363ZM419.842 514.67C420.019 507.491 413.994 497.562 400.868 496.549C391.117 495.797 381.681 500.747 377.839 511.429L419.842 514.67Z" fill="#F03553"/>
<path d="M457.624 479.729C459.061 461.1 474.733 448.681 492.359 450.041C509.985 451.402 523.581 465.89 522.129 484.706C520.677 503.522 505.02 515.753 487.393 514.393C469.767 513.033 456.172 498.545 457.624 479.729ZM488.118 507.446C502.369 508.545 513.698 498.63 514.801 484.33C515.905 470.03 506.231 458.494 491.98 457.394C477.729 456.295 466.401 466.21 465.297 480.51C464.194 494.81 473.867 506.346 488.118 507.446ZM479.499 465.138L492.812 466.166C499.563 466.686 503.917 471.376 503.452 477.397C503.133 481.537 500.765 485.329 496.711 486.53L503.356 495.75L503.052 499.702L495.926 499.152L496.129 496.518L489.499 487.11L484.623 486.733L483.738 498.211L476.987 497.69L479.484 465.326L479.499 465.138ZM491.853 481.045C494.291 481.233 496.455 480.075 496.702 476.876C496.89 474.43 494.958 472.577 492.521 472.389L485.958 471.883L485.29 480.538L491.853 481.045Z" fill="#F03553"/>
</g>
<path d="M665.397 112.822L889.339 261.707L865.928 389.215" stroke="#6ADCFF" stroke-width="16"/>
<path d="M773.921 41.8998L750.509 169.408L641.994 240.335" stroke="#6ADCFF" stroke-width="16"/>
<path d="M889.339 261.708L997.854 190.781" stroke="#6ADCFF" stroke-width="16"/>
<path d="M974.449 318.292L865.933 389.219L641.991 240.334L665.402 112.826L773.918 41.8994L997.86 190.785L974.449 318.292Z" stroke="#6ADCFF" stroke-width="16"/>
<path d="M1168.72 112.633L1131.05 181.621L1105.05 109.614L1068.92 122.658L1094.86 194.417L1023.25 155.319L1004.84 189.029L1082.85 231.615L1004.5 259.913L1017.55 296.045L1081.08 273.081L1047.58 334.497L1081.29 352.908L1123.89 274.855L1154.82 360.461L1190.95 347.417L1165.44 276.738L1226.77 310.222L1245.18 276.512L1176.1 238.774L1255.37 210.162L1242.32 174.03L1163.4 202.561L1202.44 131.043L1168.72 112.633Z" fill="#6ADCFF"/>
<defs>
<clipPath id="clip0_241_80">
<rect width="596" height="415" fill="white" transform="translate(38.9282 197.756) rotate(4.41242)"/>
</clipPath>
</defs>
</svg>
