<?xml version="1.0" encoding="UTF-8" standalone="no"?>
<!-- Created with Inkscape (http://www.inkscape.org/) -->

<svg
   width="210mm"
   height="210mm"
   viewBox="0 0 210 210"
   version="1.1"
   id="svg5"
   inkscape:version="1.1.1 (3bf5ae0d25, 2021-09-20)"
   sodipodi:docname="metro A 2.svg"
   xmlns:inkscape="http://www.inkscape.org/namespaces/inkscape"
   xmlns:sodipodi="http://sodipodi.sourceforge.net/DTD/sodipodi-0.dtd"
   xmlns="http://www.w3.org/2000/svg"
   xmlns:svg="http://www.w3.org/2000/svg">
  <sodipodi:namedview
     id="namedview7"
     pagecolor="#ffffff"
     bordercolor="#666666"
     borderopacity="1.0"
     inkscape:pageshadow="2"
     inkscape:pageopacity="0"
     inkscape:pagecheckerboard="0"
     inkscape:document-units="mm"
     showgrid="false"
     inkscape:zoom="0.5"
     inkscape:cx="203"
     inkscape:cy="78"
     inkscape:window-width="1920"
     inkscape:window-height="974"
     inkscape:window-x="-11"
     inkscape:window-y="-11"
     inkscape:window-maximized="1"
     inkscape:current-layer="layer1" />
  <defs
     id="defs2">
    <inkscape:path-effect
       effect="fillet_chamfer"
       id="path-effect2125"
       is_visible="true"
       lpeversion="1"
       satellites_param="F,0,0,1,0,16.66875,0,1 @ F,0,0,1,0,16.66875,0,1 @ F,0,0,1,0,16.66875,0,1 @ F,0,0,1,0,16.66875,0,1"
       unit="px"
       method="auto"
       mode="F"
       radius="63"
       chamfer_steps="1"
       flexible="false"
       use_knot_distance="true"
       apply_no_radius="true"
       apply_with_radius="true"
       only_selected="false"
       hide_knots="false" />
  </defs>
  <g
     inkscape:label="Vrstva 1"
     inkscape:groupmode="layer"
     id="layer1">
    <path
       style="fill:#029b52;fill-opacity:1;stroke-width:16.8898;stroke-linejoin:round;paint-order:stroke fill markers"
       id="rect29"
       width="210"
       height="210"
       x="0"
       y="0"
       inkscape:path-effect="#path-effect2125"
       d="m 16.66875,0 h 176.6625 A 16.66875,16.66875 45 0 1 210,16.66875 v 176.6625 A 16.66875,16.66875 135 0 1 193.33125,210 H 16.66875 A 16.66875,16.66875 45 0 1 0,193.33125 V 16.66875 A 16.66875,16.66875 135 0 1 16.66875,0 Z"
       sodipodi:type="rect" />
    <path
       id="path8076"
       style="fill:#ffffff;fill-opacity:0.99805498;stroke-width:17;stroke-linejoin:round;paint-order:stroke fill markers"
       d="M 68.400402,32.95 V 85.650141 H 36.9 V 102.3499 l 68.10024,74.69983 68.09971,-74.69983 V 85.650141 H 141.60007 V 32.95 H 124.10036 L 105.00024,56.550108 85.900108,32.95 Z m 16.800007,24.499794 19.799831,24.600051 19.79982,-24.600051 v 44.800366 h 25.10028 l -44.9001,48.89986 -44.900108,-48.89986 h 25.100277 z" />
  </g>
</svg>
