<?xml version="1.0" encoding="UTF-8"?>
<svg xmlns="http://www.w3.org/2000/svg" width="326" height="115" viewBox="0 0 326 115" fill="none">
  <path d="M47.9999 115H68.2941V108.235H47.9999V115ZM68.2941 108.235H75.0585V87.9412H68.2941V108.235ZM47.9999 87.9412H41.2354V108.235H47.9999V87.9412ZM68.2941 81.1768H47.9999V87.9412H68.2941V81.1768ZM34.4709 101.47H27.7064V108.235H34.4709V101.47ZM27.7057 94.7057H34.4701V87.9412H27.7057V94.7057ZM7.41222 101.47H27.7064L27.7057 94.7057H7.41222V101.47ZM0.646973 115H27.7057V108.235H0.646973V115ZM0.646973 87.9412H27.7057V81.1768H0.646973V87.9412ZM277.999 40.5883V74.4115H284.764V40.5883H277.999ZM223.882 60.8826H217.117V67.647H223.882V74.4115H230.646V40.5883H223.882V60.8826ZM210.353 60.8826H217.117V54.1181H210.353V60.8826ZM203.587 47.3528V40.5883H196.823V74.4115H203.587V54.1173L210.353 54.1181V47.3528H203.587ZM163 40.5883V74.4115H190.059V67.647H169.764V60.8826H183.294V54.1173H169.764V47.3528H190.059V40.5883H163ZM81.8238 20.2942H102.117V33.8239H108.882V-6.10352e-05H102.117V13.5297H81.8238V-6.10352e-05H75.0585V33.8239H81.8238V20.2942ZM108.882 60.8826H88.5883V47.3528H81.8238V74.4115H88.5883V67.647H108.882V74.4115H115.647V47.3528H108.882V60.8826ZM108.882 40.5883H88.5883V47.3528H108.882V40.5883ZM190.059 27.0586H210.353V33.8239H217.117V6.76519H210.353V20.2942H190.059V6.76519H183.294V33.8239H190.059V27.0586ZM210.353 -6.10352e-05H190.059V6.76519H210.353V-6.10352e-05ZM176.529 33.8239V27.0586H163V-6.10352e-05H156.235V33.8239H176.529ZM122.411 33.8239H142.706V27.0594H122.411V33.8239ZM75.0585 67.647H68.2941V74.4115H75.0585V67.647ZM68.2941 60.8826H75.0585V47.3528H68.2941V60.8826ZM47.9999 67.647H68.2941V60.8826H47.9999V47.3528H68.2941V40.5883H41.2354V74.4115H47.9999V67.647ZM27.7057 60.8826H34.4701V47.3528H27.7057V60.8826ZM7.41222 60.8826V47.3528H27.7057V40.5883H0.646973V74.4115H7.41222V67.647H27.7057V60.8826H7.41222ZM142.706 27.0594L149.47 27.0586V6.76442H142.706V27.0594ZM122.411 6.76519H115.647V27.0594H122.411V6.76519ZM142.706 -6.10352e-05H122.411V6.76519L142.706 6.76442V-6.10352e-05ZM122.411 67.647H129.176V47.3528H122.411V67.647ZM156.235 74.4115V54.1173H135.941V60.8826H149.47V67.647H129.176V74.4115H156.235ZM129.176 47.3528H156.235V40.5883H129.176V47.3528ZM47.9999 6.76519H41.2354V27.0594H47.9999V6.76519ZM68.2941 27.0586L47.9999 27.0594V33.8231H68.2941V27.0586ZM68.2941 -6.10352e-05H47.9999V6.76519L68.2941 6.76442V-6.10352e-05ZM325.352 60.8826H318.587V67.647H325.352V60.8826ZM291.529 74.4115H318.587V67.647H291.529V74.4115ZM298.293 60.8826H318.587V54.1173H298.293V60.8826ZM291.529 54.1173H298.293V47.3528H291.529V54.1173ZM325.352 40.5883H298.293V47.3528H325.352V40.5883ZM271.235 60.8826H264.47V67.647H271.235V60.8826ZM237.411 74.4115H264.47V67.647H237.411V74.4115ZM264.47 54.1173H244.176V60.8818L264.47 60.8826V54.1173ZM237.411 54.1173H244.176V47.3528H237.411V54.1173ZM244.176 47.3528H271.235V40.5883H244.176V47.3528ZM34.4709 20.2942H27.7064V27.0586H34.4709V20.2942ZM0.646973 33.8239H27.7057V27.0594H0.646973V33.8239ZM27.7057 13.5297H7.41145V20.2942H27.7064L27.7057 13.5297ZM0.646973 13.5297H7.41145V6.76519H0.646973V13.5297ZM34.4709 6.76519H7.41145L7.41222 0.000708029H34.4709V6.76519Z" fill="#283761"></path>
</svg>
